<?xml version="1.0" encoding="UTF-8"?>
<svg id="Layer_2" data-name="Layer 2" xmlns="http://www.w3.org/2000/svg" viewBox="0 0 407.71 126.02">
  <defs>
    <style>
      .cls-1 {
        fill: #fff;
      }

      .cls-2 {
        fill: none;
      }
    </style>
  </defs>
  <g id="Layer_1-2" data-name="Layer 1">
    <g>
      <path class="cls-1" d="M156.12,108.97c.56,6.1,4.95,12.36,13.97,15.61,0,0,6.87,3.22,24.64-1.86,0,0,4.13-1.55,9.63-1.5,5.48.04,9.64,1.66,9.64,1.66,17.85,5.36,24.68,2.26,24.68,2.26,8.97-3.1,13.26-9.29,13.73-15.38.64-8.34-3.56-16.36-10.79-21.9-5.54-4.26-12.97-10.17-17.06-17.75-7.49-13.89-20.71-13.21-20.71-13.21,0,0-13.24-.89-20.51,12.88-3.97,7.51-11.3,13.31-16.78,17.48-7.13,5.43-11.22,13.38-10.44,21.73"/>
      <path class="cls-1" d="M136.1,60.29c1.35,13.01,9.12,22.97,17.36,22.23,8.24-.74,13.82-11.89,12.46-24.9-1.35-13.02-9.12-22.97-17.36-22.23-8.24.74-13.82,11.89-12.46,24.91"/>
      <path class="cls-1" d="M167.31,23.86c.38,13.06,7.39,23.57,15.67,23.46,8.28-.11,14.68-10.79,14.3-23.86C196.9,10.39,189.89-.11,181.61,0c-8.28.11-14.68,10.79-14.3,23.86"/>
      <path class="cls-1" d="M271.66,61.38c-1.15,12.99-8.76,22.82-17.01,21.95-8.25-.87-14.01-12.11-12.86-25.11,1.14-13,8.76-22.82,17.01-21.95,8.25.87,14.01,12.11,12.86,25.11"/>
      <path class="cls-1" d="M239.87,24.44c-.17,13.06-7.02,23.45-15.3,23.21-8.28-.24-14.85-11.03-14.69-24.09.17-13.06,7.02-23.45,15.3-23.21,8.28.24,14.86,11.03,14.69,24.09"/>
    </g>
    <rect class="cls-2" width="407.71" height="126.02"/>
  </g>
</svg>